:SAMPLES-PER-SECOND 30
:FULLY-SPECIFIED
:DEGREES
228
root  -32.7426 34.1309 4.66303 -177.413 81.198 177.032
RightUpLeg  -10.792 -6.81252 0.0706374
RightLeg  21.0533 7.02331 2.18863
RightFoot  -5.01938 -0.0484538 -0.61716
RightToes  -28.4861 -0.13244 -0.241308
Spine  -2.89393 -0.884327 0.513286
Spine1  -4.51104 -2.07875 1.7631
HEad  -64.4305 -4.31937 7.04698
LeftShoulder1  -1.94126e-019 -3.10601e-018 -2.51263e-017
LeftArm  -34.8189 48.8249 -87.7989
LeftForeArm  16.764 -2.72051 -0.476295
LeftHand  -0.230318 2.9145 10.3938
RightShoulder  -4.96962e-017 0 -2.36833e-017
RightArm  -51.8233 -48.2747 72.4975
RightForeArm  58.6061 2.45029 0.398802
RightHand  0.0138409 -5.84498 -9.25219
LeftUpLeg  -12.2322 1.64424 0.847468
LeftLeg  21.918 14.2038 4.61897
LeftFoot  -1.2048 -0.00172596 -0.241686
LeftToes  -19.6411 1.89912e-006 4.45198e-008
229
root  -32.7927 34.1349 4.57225 -177.287 81.5944 177.041
RightUpLeg  -11.0013 -6.55412 -0.0651422
RightLeg  21.0186 7.17087 2.22968
RightFoot  -4.85773 -0.0471371 -0.613186
RightToes  -28.738 -0.13468 -0.2431
Spine  -2.92153 -0.862266 0.51764
Spine1  -4.50887 -2.02211 1.74789
HEad  -64.5262 -4.1396 7.08555
LeftShoulder1  -1.94126e-019 -3.10601e-018 -2.51263e-017
LeftArm  -34.9735 50.4938 -88.6221
LeftForeArm  19.6309 -4.54247 -0.793921
LeftHand  -0.291275 1.96228 9.69096
RightShoulder  -4.96962e-017 0 -2.36833e-017
RightArm  -50.994 -49.1172 72.3117
RightForeArm  59.0371 3.31198 0.547124
RightHand  -0.0491036 -4.98671 -8.45181
LeftUpLeg  -12.2408 1.65098 0.668145
LeftLeg  21.7244 14.6088 4.6937
LeftFoot  -1.22621 -0.00133387 -0.257162
LeftToes  -19.2475 1.89912e-006 4.45198e-008
230
root  -32.846 34.1527 4.49281 -177.105 81.9736 177.141
RightUpLeg  -11.0557 -6.25978 -0.166693
RightLeg  20.7211 7.24599 2.21204
RightFoot  -4.58303 -0.0432814 -0.583887
RightToes  -28.9087 -0.136903 -0.245094
Spine  -2.85538 -0.833662 0.517876
Spine1  -4.4153 -1.97624 1.7394
HEad  -64.182 -4.18207 7.05301
LeftShoulder1  -1.94126e-019 -3.10601e-018 -2.51263e-017
LeftArm  -34.8707 50.7092 -88.8958
LeftForeArm  22.0377 -5.73681 -1.00415
LeftHand  -0.29811 1.68107 9.201
RightShoulder  -4.96962e-017 0 -2.36833e-017
RightArm  -51.4718 -48.867 72.3379
RightForeArm  58.8246 4.02316 0.672611
RightHand  -0.044434 -5.05899 -8.60101
LeftUpLeg  -12.1952 1.84206 0.532847
LeftLeg  21.4315 14.8612 4.6903
LeftFoot  -1.19645 -0.00139555 -0.255601
LeftToes  -19.0741 1.89912e-006 4.45198e-008
231
root  -32.9111 34.1717 4.41703 -177.061 82.2167 177.101
RightUpLeg  -11.1283 -6.32543 -0.296487
RightLeg  20.4475 7.54183 2.26289
RightFoot  -4.29356 -0.0399324 -0.569183
RightToes  -29.2624 -0.138875 -0.247181
Spine  -2.7303 -0.82773 0.497747
Spine1  -4.26172 -1.96638 1.69516
HEad  -63.7993 -4.16401 6.91727
LeftShoulder1  -1.94126e-019 -3.10601e-018 -2.51263e-017
LeftArm  -34.2168 49.6004 -88.5024
LeftForeArm  23.3728 -6.2273 -1.09072
LeftHand  -0.298099 1.48139 8.75089
RightShoulder  -4.96962e-017 0 -2.36833e-017
RightArm  -52.5981 -47.5533 72.4994
RightForeArm  59.0468 4.46953 0.750447
RightHand  -0.050229 -4.99883 -9.23815
LeftUpLeg  -12.2251 2.10377 0.384511
LeftLeg  21.1921 14.8671 4.62497
LeftFoot  -1.12107 -0.00208318 -0.23322
LeftToes  -18.8129 1.89912e-006 4.45198e-008
232
root  -32.9894 34.193 4.3435 -176.886 82.3293 177.225
RightUpLeg  -11.1533 -6.38645 -0.412428
RightLeg  20.1276 7.73623 2.27425
RightFoot  -3.99582 -0.0360143 -0.53688
RightToes  -29.6665 -0.140673 -0.249271
Spine  -2.53468 -0.827975 0.497376
Spine1  -4.02094 -1.9398 1.68594
HEad  -63.4553 -4.11035 6.55529
LeftShoulder1  -1.94126e-019 -3.10601e-018 -2.51263e-017
LeftArm  -33.3211 47.3848 -87.7378
LeftForeArm  24.1177 -6.30578 -1.1047
LeftHand  -0.294176 1.37748 8.42017
RightShoulder  -4.96962e-017 0 -2.36833e-017
RightArm  -53.0655 -45.4816 72.7779
RightForeArm  59.198 5.21346 0.880155
RightHand  -0.0810666 -4.60031 -9.35869
LeftUpLeg  -12.2444 2.21761 0.258716
LeftLeg  20.9304 14.8611 4.54999
LeftFoot  -0.993858 -0.00308208 -0.19381
LeftToes  -18.6074 1.89912e-006 4.45198e-008
233
root  -33.0699 34.2265 4.27461 -176.857 82.4339 177.209
RightUpLeg  -11.1174 -6.36289 -0.529315
RightLeg  19.686 7.83199 2.2373
RightFoot  -3.68023 -0.0316384 -0.488776
RightToes  -29.901 -0.142411 -0.251277
Spine  -2.28936 -0.795592 0.49002
Spine1  -3.72968 -1.83961 1.66235
HEad  -63.1904 -4.05174 6.16013
LeftShoulder1  -1.94126e-019 -3.10601e-018 -2.51263e-017
LeftArm  -32.2089 44.3226 -86.7459
LeftForeArm  24.873 -6.31503 -1.1054
LeftHand  -0.311891 1.13952 8.46202
RightShoulder  -4.96962e-017 0 -2.36833e-017
RightArm  -51.7148 -43.0059 73.2853
RightForeArm  58.232 6.66019 1.13618
RightHand  -0.125832 -3.96107 -8.99925
LeftUpLeg  -12.1655 2.38116 0.122924
LeftLeg  20.4376 14.8792 4.41791
LeftFoot  -0.834255 -0.00222129 -0.143567
LeftToes  -18.4574 1.89912e-006 4.45198e-008
234
root  -33.1517 34.2839 4.21028 -176.918 82.3775 177.136
RightUpLeg  -10.8705 -6.33476 -0.645033
RightLeg  18.9107 7.78372 2.1109
RightFoot  -3.18337 -0.0250181 -0.402266
RightToes  -30.1637 -0.143912 -0.253102
Spine  -2.00291 -0.783649 0.456088
Spine1  -3.39423 -1.78806 1.59817
HEad  -63.0199 -4.09743 5.79889
LeftShoulder1  -1.94126e-019 -3.10601e-018 -2.51263e-017
LeftArm  -31.1297 40.872 -85.7027
LeftForeArm  25.5225 -6.96449 -1.21986
LeftHand  -0.319603 1.14292 8.68137
RightShoulder  -4.96962e-017 0 -2.36833e-017
RightArm  -48.3486 -40.3268 73.9839
RightForeArm  56.3068 8.82693 1.46402
RightHand  -0.161341 -3.37899 -8.57024
LeftUpLeg  -11.907 2.31699 -0.0203689
LeftLeg  19.6042 14.9611 4.2094
LeftFoot  -0.44231 -0.00073845 -0.0297937
LeftToes  -18.3042 1.89912e-006 4.45198e-008
235
root  -33.2206 34.3648 4.15831 -176.944 82.3958 177.086
RightUpLeg  -10.41 -6.14874 -0.721557
RightLeg  17.6823 7.65007 1.90094
RightFoot  -2.50321 -0.0172106 -0.285752
RightToes  -30.156 -0.144996 -0.254126
Spine  -1.76823 -0.721077 0.404633
Spine1  -3.16085 -1.6232 1.49218
HEad  -62.7622 -4.03531 5.61191
LeftShoulder1  -1.94126e-019 -3.10601e-018 -2.51263e-017
LeftArm  -30.1434 37.4983 -84.6933
LeftForeArm  25.3467 -8.46362 -1.48651
LeftHand  -0.316233 1.1939 8.68744
RightShoulder  -4.96962e-017 0 -2.36833e-017
RightArm  -43.1674 -37.6052 74.6154
RightForeArm  53.047 11.4729 1.53663
RightHand  -0.183432 -2.92629 -8.11697
LeftUpLeg  -11.4599 2.42246 -0.127301
LeftLeg  18.3981 14.9492 3.8735
LeftFoot  0.130955 2.92851e-005 0.136076
LeftToes  -18.2251 1.89912e-006 4.45198e-008
